<svg xmlns="http://www.w3.org/2000/svg" pointer-events="none" class="leaflet-zoom-animated" width="1135" height="593" viewBox="-95 -49 1135 593" style="transform: translate3d(-95px, -49px, 0px);"><g><path class="leaflet-interactive" stroke="#201920" stroke-opacity="1" stroke-width="2" stroke-linecap="round" stroke-linejoin="round" fill="none" d="M301 217L299 213L302 210L301 209L305 205L307 205L307 203L308 204L311 202L312 205L316 205L319 199L324 200L324 198L325 199L331 194L338 191L338 184L341 183L338 171L335 170L340 167L341 168L345 166L351 166L349 162L354 150L359 153L368 152L368 142L375 138L375 134L381 134L380 137L382 137L382 139L384 141L385 140L386 143L393 145L396 148L399 155L397 165L400 168L401 167L406 169L414 169L421 175L424 174L423 175L429 187L455 187L471 194L475 193L476 195L491 189L503 189L508 187L518 178L515 175L516 170L518 168L527 171L534 165L537 166L540 164L544 158L548 158L554 154L558 154L557 155L558 154L560 156L563 155L562 150L556 144L553 143L549 147L547 145L543 145L541 147L538 143L540 142L545 128L551 131L555 127L560 126L560 120L564 112L568 108L568 104L564 102L569 96L570 97L577 94L585 94L591 98L594 97L598 101L600 105L599 106L601 108L600 109L603 114L602 115L606 121L605 124L607 124L606 127L608 130L613 130L621 136L623 136L625 140L624 143L627 147L631 147L643 141L649 140L647 142L647 148L644 149L645 151L643 159L640 162L638 168L637 169L631 166L627 170L627 185L625 185L623 187L624 188L620 184L619 189L617 189L614 192L610 192L611 195L609 197L604 196L605 195L602 194L601 197L596 202L594 202L595 203L594 202L589 206M329 264L327 260L328 259L330 261L332 259L332 257L329 254L329 250L331 248L326 246L326 240L320 240L317 237L315 237L313 235L313 231L305 229L305 227L307 228M489 328L487 326L488 323L483 322L480 319L472 325L470 323L467 325L465 323L463 323L463 325L459 325L459 333L457 333L456 329L452 331L450 327L446 327L445 326L447 322L444 321L442 317L442 315L444 315L436 315L437 308L441 304L443 304L443 294L441 292L440 293L439 288L436 287L433 292L429 288L425 288L413 297L405 297L404 293L402 293L401 290L398 291L399 290L390 289L388 295L386 293L387 290L376 291L374 289L371 290L372 289L370 291L369 288L365 288L366 286L361 285L359 281L356 282L346 274L344 274L343 277L334 270L330 270L329 264M495 330L489 328M497 422L497 416M503 363L506 369M509 386L507 392M517 437L523 435M538 415L542 410M555 394L558 387M558 364L558 371M564 346L561 352M575 330L570 335M578 319L580 311" id="国界"/><path class="leaflet-interactive" stroke="#201920" stroke-opacity="1" stroke-width="2" stroke-linecap="butt" stroke-linejoin="round" stroke-dasharray="4,4" stroke-dashoffset="4" fill="none" d="M307 228L309 226L307 224L307 218L301 217" id="争议"/><path class="leaflet-interactive" stroke="gray" stroke-opacity="1" stroke-width="1" stroke-linecap="round" stroke-linejoin="round" stroke-dasharray="8,4,4,4" fill="none" d="M527 326L527 326M531 324L529 326L531 327L531 324" id="港澳"/><path class="leaflet-interactive" stroke="#4190da" stroke-opacity="1" stroke-width="1" stroke-linecap="round" stroke-linejoin="round" fill="none" d="M530 325L528 323L528 325L525 328L524 327L524 329L518 329L516 331L508 333L510 337L508 339L506 339L505 330L495 330M509 333L509 333M509 333L510 334L508 334L509 333M527 326L527 326M530 325L530 325M530 325L530 325M530 325L530 325M563 298L561 302L561 306L563 306L559 306L560 307L558 307L558 309L555 312L553 312L553 314L549 318L547 318L542 323L539 322L539 324L534 323L532 324L533 325L531 325L532 326L530 325M563 298L563 298M574 283L573 282L573 288L571 290L570 289L570 291L567 293L568 294L563 298M572 231L569 232L567 236L564 235L565 236L559 244L566 249L569 256L569 260L571 260L572 263L574 263L575 266L569 265L571 267M571 267L574 268L576 273L570 273L575 278L575 282M572 231L572 231M572 231L572 231M577 212L570 217L570 215L573 214L571 210L576 205L574 201L570 201L567 204L567 206L561 208L560 211L557 214L558 213L555 214L556 215L552 213L550 217L550 219L552 219L555 222L558 221L560 223L558 225L559 228L563 228L563 226L567 223L569 223L572 226L575 225L579 227L578 230L575 229L572 231M572 231L573 230L572 231M574 283L574 283M574 283L574 283M574 283L574 283M575 282L574 283M575 282L575 282M576 277L576 277M576 277L576 277M576 277L576 277M577 277L576 277M576 277L575 276L577 277M577 277L577 277M577 275L577 275M577 275L577 275M577 212L577 212M589 206L586 209L582 209L577 212M578 272L578 272M578 272L578 272M579 272L579 272M500 330L500 330M502 334L502 334M504 340L504 340M504 414L507 413L504 414M504 351L499 348L499 344L503 340L504 341L510 339L513 341L510 347L504 351M506 411L506 411M509 336L509 336M509 333L509 333M509 411L510 412L509 411M509 410L510 409L509 410M510 333L510 333M510 338L510 338M510 410L510 410M510 334L510 334M514 365L514 365M515 357L515 357M515 407L515 407M515 361L515 361M515 403L515 403M516 413L516 413M516 411L516 411M516 361L516 361M516 361L516 361M516 411L516 411M516 362L516 362M516 406L517 407L516 406M516 360L516 360M516 412L516 412M516 360L516 360M517 363L516 362L517 363M517 361L517 361M517 363L517 363M518 410L518 410M518 362L518 362M518 434L518 434M519 406L520 405L519 406M519 405L519 405M519 434L519 434M519 359L519 359M519 366L520 365L519 366M519 358L519 358M520 405L520 405M520 434L520 434M520 405L520 405M520 424L520 424M520 358L520 358M520 359L520 359M520 362L520 362M521 330L521 330M521 423L521 423M521 364L522 363L521 364M521 361L521 361M521 401L521 401M521 424L521 424M521 423L521 423M521 405L522 406L521 405M521 422L521 422M521 427L521 427M521 330L521 330M521 424L522 425L521 424M522 425L522 425M522 361L522 361M522 427L522 427M522 329L521 330L522 329M522 362L522 362M522 360L522 360M523 330L522 329L523 330M523 405L523 405M523 330L523 330M523 359L523 359M523 411L523 411M523 401L523 401M523 401L523 401M523 428L524 427L523 428M524 408L524 408M524 343L524 343M524 401L524 401M524 329L524 329M525 328L525 328M525 329L525 329M525 328L525 328M525 420L525 420M525 410L525 410M525 410L526 409L525 410M527 327L527 327M527 397L527 397M527 416L527 416M527 405L528 404L527 405M528 403L528 403M528 328L528 328M528 366L528 366M528 328L528 328M528 328L528 328M528 328L528 328M528 412L529 413L528 412M528 414L528 414M529 325L529 325M529 327L529 327M529 345L529 345M529 326L529 326M529 399L529 399M529 367L529 367M529 366L529 366M529 410L529 410M529 413L533 411L529 413M529 405L529 405M529 365L529 365M529 405L530 406L529 405M529 405L530 406L529 405M529 367L529 367M530 399L530 399M530 394L530 394M530 410L530 410M530 364L530 364M530 326L530 326M530 328L530 328M530 402L531 403L530 402M531 326L531 326M531 328L531 328M531 406L531 406M531 364L531 364M531 328L531 328M531 367L531 367M531 397L531 397M531 400L531 400M531 327L531 327M531 366L531 366M531 400L531 400M531 391L531 391M531 324L531 324M531 393L531 393M531 326L531 326M532 398L532 398M532 395L532 395M532 390L532 390M532 364L533 363L532 364M532 399L532 399M532 366L532 366M532 400L532 400M532 394L532 394M532 395L533 394L532 395M532 399L532 399M532 410L533 409L532 410M533 399L533 399M533 399L533 399M533 391L533 391M533 399L533 399M533 405L533 405M533 366L533 366M533 399L533 399M533 391L533 391M533 325L533 325M533 413L533 413M533 409L533 409M533 397L533 397M533 390L534 391L533 390M534 393L534 393M534 363L534 363M534 400L533 401L534 400M534 409L534 409M534 392L534 392M534 364L534 364M534 394L534 394M534 415L534 415M534 410L535 411L534 410M535 394L535 394M535 364L535 364M535 413L535 413M535 393L535 393M536 408L537 409L536 408M537 407L537 407M537 398L537 398M537 376L537 376M538 402L538 402M538 399L538 399M538 408L538 408M539 396L539 396M539 396L539 396M539 396L539 396M540 396L540 396M540 396L540 396M540 400L540 400M540 394L540 394M540 334L540 334M541 333L541 333M541 403L541 403M541 398L541 398M542 401L542 401M542 405L542 405M543 400L543 400M544 404L544 404M544 400L544 400M544 397L544 397M544 400L544 400M545 396L545 396M545 362L545 362M545 390L545 390M545 336L545 336M545 404L545 404M545 335L546 336L545 335M546 396L546 396M547 319L547 319M548 395L548 395M548 395L548 395M548 397L548 397M548 395L548 395M548 393L548 393M549 398L549 398M549 393L549 393M550 395L550 395M551 393L551 393M551 369L551 369M551 394L551 394M553 313L553 313M553 313L553 313M554 313L554 313M555 312L554 313L555 312M556 214L556 214M557 214L557 214M557 214L557 214M560 320L560 320M561 308L561 308M561 319L561 319M561 318L561 318M561 317L561 317M561 305L561 305M562 302L562 302M562 318L562 318M562 305L562 305M562 305L562 305M562 299L562 299M562 307L562 307M562 307L562 307M562 299L562 299M563 305L563 305M563 302L563 302M563 303L563 303M564 319L564 319M564 301L564 301M564 300L564 300M564 299L564 299M564 299L564 299M564 298L564 298M565 238L565 238M565 297L565 297M566 326L566 326M566 297L566 297M566 224L566 224M566 300L566 300M567 222L567 222M568 328L565 324L564 317L569 311L569 309L573 307L575 309L571 323L568 328M568 222L568 222M568 222L568 222M568 221L568 221M568 204L568 204M568 220L568 220M569 219L569 219M569 219L569 219M569 233L569 233M570 290L570 290M570 294L570 294M570 290L570 290M570 290L570 290M572 265L575 267L573 267L572 265M572 260L572 260M572 323L572 323M572 327L573 328L572 327M573 328L573 328M573 267L573 267M573 283L573 283M574 285L574 285M574 268L573 267L574 268M574 268L576 268L574 268M574 277L574 277M574 285L574 285M574 285L574 285M574 287L574 287M574 276L575 277L574 276M574 269L574 269M574 287L574 287M575 306L575 306M575 310L575 310M575 276L575 276M575 269L575 269M575 275L575 275M575 282L575 282M575 279L575 279M575 277L575 277M575 276L575 276M575 273L575 273M576 277L576 277M576 277L576 277M576 277L576 277M576 277L576 277M576 276L576 276M576 275L576 275M576 275L576 275M576 281L576 281M576 279L575 278L576 279M576 279L576 279M576 277L576 277M577 278L577 278M577 278L577 278M577 279L576 278L577 279M577 277L578 278L577 277M577 213L577 213M577 277L577 277M577 274L577 274M578 274L578 274M578 213L578 213M578 213L578 213M578 273L578 273M579 213L579 213M579 276L579 276M579 215L579 215M579 272L579 272M580 272L580 272M581 211L581 211M581 212L581 212M582 215L582 215M583 304L584 305L582 305L583 304M584 304L584 304M584 303L585 304L584 303M584 305L584 305M584 304L584 304M584 305L584 305M585 209L585 209M589 303L590 304L589 303" id="海洋"/><path class="leaflet-interactive" stroke="#747569" stroke-opacity="0.6" stroke-width="1" stroke-linecap="round" stroke-linejoin="round" fill="none" d="M391 236L389 234L378 233L372 235L368 239L365 238L360 241L353 240L353 238L345 242L339 240L336 243L336 245L334 247L330 247L331 248M437 260L435 260L435 262L432 263L433 264L431 264L431 266L429 264L429 266L426 266L424 262L423 263L423 261L419 259L415 261L404 258L402 256L396 256L392 252L393 251L391 251L391 236M407 214L394 218L394 220L396 220L396 224L400 227L400 229L397 230L397 232L399 232L399 236L393 234L393 236L391 236M460 253L459 254L459 252L458 253L454 249L462 249L463 248L461 244L463 240L466 239L465 240L467 236L464 229L465 228L461 224L456 223L451 218L451 220L448 219L443 214L439 216L434 213L432 215L433 218L431 218L431 220L428 221L426 219L420 219L418 216L416 217L410 213L407 214M429 187L427 189L428 193L426 193L423 196L423 194L421 194L414 202L410 203L406 213L407 214M474 226L469 223L469 219L474 215L472 211L467 214L462 213L462 215L458 217L455 214L455 212L447 208L451 205L450 201L448 200L443 203L440 203L440 200L436 197L438 195L434 186M445 282L444 272L442 269L443 268L441 266L440 261L437 260M460 253L459 256L456 255L457 258L455 260L451 260L450 257L448 259L445 256L443 256L441 250L438 249L435 252L437 254L435 258L437 260M439 289L443 288L442 285L444 285L445 282M480 292L479 289L475 291L474 286L472 286L472 288L469 289L470 292L466 294L467 301L464 300L460 302L454 290L452 292L450 290L451 289L449 285L447 285L446 288L445 287L445 282M481 258L479 260L476 259L474 257L474 253L470 251L469 252L467 248L465 248L465 250L462 251L464 253L461 256L460 253M493 223L487 219L490 214L488 212L483 216L482 224L474 226M474 226L476 226L476 228L477 227L480 230L480 238L481 237L486 242L486 238L489 237L489 235L486 232L488 230L487 229L491 228M480 292L480 294L475 293L470 296L471 299L476 300L474 304L477 307L476 311M476 311L476 313L477 312L480 315L481 314L485 316L485 318L481 320M504 303L501 304L501 306L500 305L495 308L493 308L490 305L490 307L484 311L481 309L476 311M486 287L484 285L482 287L486 290L484 292L480 292M491 228L491 230L499 234L499 240L495 242L494 241L493 244L488 243L486 247L488 247L486 251L487 252L484 253L484 257L481 258M498 262L495 263L492 260L491 261L489 259L486 260L484 258L481 258M503 287L501 289L497 285L497 283L494 284L494 282L492 282L492 284L490 284L487 287L487 285L486 287M486 287L486 285L480 281L480 279L483 278L481 276L483 274L485 276L488 275L488 277L490 276L493 273L492 272L496 270L498 262M491 228L493 223M513 212L513 210L510 213L508 211L508 213L506 213L505 216L501 219L502 222L500 222L500 224L497 225L493 223M498 262L504 266M504 266L507 267L508 270L503 274L500 273L497 278L499 278L501 280L500 281L502 281L502 283M502 283L503 287M529 283L527 279L524 281L523 278L521 280L517 277L516 278L512 276L509 279L506 278L502 283M504 303L503 295L500 296L504 292L503 287M518 311L516 311L515 308L513 310L512 309L515 304L514 301L512 301L513 300L508 303L504 303M512 255L504 255L506 257L505 258L508 259L504 261L504 266M506 331L505 331M506 331L505 330L515 322L515 318L518 315L518 311M506 339L507 339M507 339L509 339M509 246L509 230L511 226L510 221L514 213L513 212M509 246L510 250L513 253L512 255M509 246L518 243L518 241L523 242L527 240L528 234M509 338L510 338M537 268L530 265L528 261L518 261L512 255M513 256L513 256M530 202L527 205L521 205L518 208L518 210L513 212M518 311L519 308L523 310L525 306L529 306M538 235L535 236L528 234M528 234L527 231L530 224L527 217L530 214L532 214L533 211L532 208L529 207L532 205L530 202M542 278L538 278L534 280L535 281L531 281L529 283M529 306L531 302L529 302L529 294L527 294L527 292L531 288L529 283M529 306L534 307L530 311L531 312L535 312L537 310L539 312L540 309M559 197L558 198L553 195L554 192L551 187L547 189L545 193L539 193L536 196L533 191L529 197L530 202M542 246L542 248L544 248L545 251L542 252L538 250L539 253L537 253L535 257L536 260L540 260L541 263L537 268M542 278L540 274L541 271L537 268M552 220L549 223L545 223L542 227L541 226L541 228L537 232L538 235M542 246L538 246L538 244L534 242L541 236L537 238L538 235M540 309L542 303L545 300L544 297L548 295L547 292L555 288M548 318L546 316L546 312L540 309M553 281L548 278L546 280L544 276L544 278L542 278M543 246L542 246M560 243L559 242L553 248L552 245L548 247L546 243L543 244L543 246M562 269L558 269L554 263L557 260L558 261L559 258L558 257L554 259L553 255L552 256L553 253L543 246M549 206L549 202L547 202L544 199L544 201L543 200L544 201L542 201L542 203L539 204L540 205L538 209L540 211L546 210M550 217L547 218L545 216L546 210M546 210L546 210M546 210L548 210L548 207M548 207L545 208L546 210M548 318L548 319M549 206L548 207M549 319L549 320M549 206L551 208L549 208L551 211L552 210L552 213M553 281L557 279L557 275L559 275L560 272L561 273L562 269M553 281L552 282L555 285L555 288M566 296L566 294L562 294L562 292L560 294L557 293L557 289L555 288M559 197L559 191L561 189L564 194L572 188L573 189L575 187L582 186L585 182M563 207L561 203L557 201L559 197M569 270L567 272L562 269M568 296L568 296M568 219L570 219M575 266L570 265L571 266L569 270M571 272L569 272L569 270M571 272L572 272M583 153L581 155L577 149L580 146L582 146L582 144L584 144L588 139L588 141L590 141L589 140L591 134L594 133L593 128L597 122L598 117L594 112L592 112L593 113L590 115L582 115L579 111L580 106L576 104L574 106L571 103L574 98L572 96M573 272L573 272M574 272L575 272M575 272L576 271M577 271L578 271M579 271L579 271M628 181L623 180L623 176L615 180L612 177L612 173L610 173L609 176L606 173L607 172L603 170L604 169L602 167L599 168L596 165L588 165L586 162L586 158L582 159M582 159L581 156L584 155L583 153M582 159L579 162L580 163L578 161L573 162L576 165L576 173L578 175L582 173L581 174L585 182M583 153L582 152L583 153M583 153L583 153M583 153L583 153M585 182L586 181L589 184L589 186L591 184L595 192L594 195L596 197L596 201M483 240L483 240M504 298L504 298M523 278L523 278" id="省界"/><path class="leaflet-interactive" stroke="#3388ff" stroke-opacity="0" stroke-width="3" stroke-linecap="round" stroke-linejoin="round" fill="#eee" fill-opacity="0.5" fill-rule="evenodd" d="M549 203L550 202L546 202L545 199L543 201L544 202L539 204L540 205L538 209L540 211L544 211L546 209L545 208L549 206L549 203z" id="北京市"/><path class="leaflet-interactive" stroke="#3388ff" stroke-opacity="0" stroke-width="3" stroke-linecap="round" stroke-linejoin="round" fill="#eee" fill-opacity="0.5" fill-rule="evenodd" d="M551 212L552 211L549 208L551 208L549 206L547 208L548 209L545 211L545 217L550 218L550 216L552 215L551 212zM551 212L551 212z" id="天津市"/><path class="leaflet-interactive" stroke="#3388ff" stroke-opacity="0" stroke-width="3" stroke-linecap="round" stroke-linejoin="round" fill="#eee" fill-opacity="0.5" fill-rule="evenodd" d="M549 202L548 205L551 208L549 208L554 215L556 215L555 214L557 214L563 207L561 203L557 201L559 197L558 198L553 195L554 192L551 187L547 189L545 193L539 193L536 196L533 191L531 193L529 199L531 205L533 205L530 207L529 206L532 209L532 211L533 210L532 213L528 215L529 216L527 220L530 223L530 225L528 231L526 231L529 234L537 236L537 232L541 227L552 220L550 218L545 217L546 210L538 210L538 208L541 205L540 204L544 202L543 201L545 199L546 202L549 202zM548 207L545 208L547 210L548 207zM551 212L551 212zM557 214L557 214z" id="河北省"/><path class="leaflet-interactive" stroke="#3388ff" stroke-opacity="0" stroke-width="3" stroke-linecap="round" stroke-linejoin="round" fill="#eee" fill-opacity="0.5" fill-rule="evenodd" d="M509 246L518 243L518 241L522 242L527 239L527 231L530 226L527 218L533 210L532 211L532 209L529 206L530 207L532 205L531 202L529 204L528 203L527 205L521 205L518 208L518 210L516 210L512 215L513 216L510 221L510 239L508 246z" id="山西省"/><path class="leaflet-interactive" stroke="#3388ff" stroke-opacity="0" stroke-width="3" stroke-linecap="round" stroke-linejoin="round" fill="#eee" fill-opacity="0.5" fill-rule="evenodd" d="M434 186L438 195L436 196L440 203L443 203L444 201L445 202L448 200L450 201L451 205L448 208L455 212L457 216L461 217L462 215L460 214L466 214L472 211L473 212L474 214L469 219L469 223L471 223L473 226L483 223L483 217L488 212L490 214L487 220L492 221L496 225L498 225L501 222L502 218L508 212L511 213L513 210L513 212L515 212L515 210L517 210L520 205L522 206L528 204L530 202L529 197L533 191L536 196L539 193L544 193L546 189L551 188L553 190L552 191L554 193L554 197L559 198L561 190L564 193L564 195L568 190L578 186L582 186L585 183L582 180L584 180L583 175L581 173L578 175L576 173L576 166L575 163L573 163L574 160L576 162L580 162L582 158L581 155L582 156L584 154L582 152L583 153L581 155L577 149L580 146L582 146L582 144L584 144L588 139L588 141L590 141L589 140L591 134L594 133L593 128L597 122L598 117L594 112L592 112L593 113L590 115L582 115L579 111L580 106L576 104L574 106L571 103L574 98L570 96L564 101L564 103L568 103L568 109L564 111L563 116L559 122L560 125L551 131L545 128L541 136L540 142L538 143L541 147L543 145L547 145L549 147L551 144L555 144L562 150L563 154L561 156L557 154L549 156L549 158L546 157L541 164L537 166L534 165L527 171L521 168L517 169L515 173L518 178L516 181L514 181L504 189L491 189L476 195L476 193L473 194L462 191L460 188L444 188L434 186z" id="内蒙古自治区"/><path class="leaflet-interactive" stroke="#3388ff" stroke-opacity="0" stroke-width="3" stroke-linecap="round" stroke-linejoin="round" fill="#eee" fill-opacity="0.5" fill-rule="evenodd" d="M584 209L588 208L592 203L596 201L596 197L594 195L594 191L591 184L589 186L589 184L586 181L584 185L583 184L580 187L577 186L574 189L573 188L568 190L564 194L561 189L559 191L560 196L557 201L561 203L563 207L565 207L568 204L568 202L570 202L569 201L576 202L575 207L572 208L571 211L573 213L570 216L575 215L574 214L575 215L578 211L584 209zM579 213L578 212L579 213zM577 213L577 213zM579 213L579 213zM579 214L579 214zM581 211L581 211zM578 213L578 213zM568 204L568 204zM581 212L581 211zM582 215L582 214zM585 209L585 209z" id="辽宁省"/><path class="leaflet-interactive" stroke="#3388ff" stroke-opacity="0" stroke-width="3" stroke-linecap="round" stroke-linejoin="round" fill="#eee" fill-opacity="0.5" fill-rule="evenodd" d="M618 189L620 185L622 185L624 189L623 186L625 186L628 182L625 181L622 176L614 180L611 173L610 176L608 176L606 173L607 172L605 172L602 167L599 168L592 164L589 165L586 162L587 160L585 158L582 159L579 162L580 163L578 161L574 161L573 163L575 163L577 175L581 173L584 178L584 180L582 180L589 184L589 186L591 184L594 191L594 195L596 197L596 201L598 201L602 194L604 194L604 196L610 197L611 196L609 192L615 192L616 189L618 189z" id="吉林省"/><path class="leaflet-interactive" stroke="#3388ff" stroke-opacity="0" stroke-width="3" stroke-linecap="round" stroke-linejoin="round" fill="#eee" fill-opacity="0.5" fill-rule="evenodd" d="M584 159L585 158L587 160L587 164L592 164L598 168L601 167L604 169L603 170L607 172L606 173L609 176L609 174L612 173L614 180L622 176L623 179L627 181L628 176L626 170L632 166L637 169L638 168L640 162L643 159L645 151L644 150L648 146L646 144L650 140L646 140L634 146L627 147L624 143L625 140L623 136L621 136L617 131L616 132L614 130L611 131L607 129L607 125L605 123L606 122L603 117L603 113L601 111L601 107L598 101L594 97L591 98L586 94L577 94L573 96L574 99L570 103L573 104L573 106L577 104L579 106L581 115L590 115L593 112L596 114L598 118L593 127L594 132L590 136L590 142L589 143L588 140L577 149L581 155L583 153L582 152L584 154L582 156L581 155L581 157L584 159z" id="黑龙江省"/><path class="leaflet-interactive" stroke="#3388ff" stroke-opacity="0" stroke-width="3" stroke-linecap="round" stroke-linejoin="round" fill="#eee" fill-opacity="0.5" fill-rule="evenodd" d="M569 270L570 272L575 272L575 270L572 267L570 267L569 270zM575 266L570 265L572 267L575 267zM574 268L573 267L574 268zM574 268L576 269L574 268zM573 267L573 267zM575 269L575 269zM574 269L575 269z" id="上海市"/><path class="leaflet-interactive" stroke="#3388ff" stroke-opacity="0" stroke-width="3" stroke-linecap="round" stroke-linejoin="round" fill="#eee" fill-opacity="0.5" fill-rule="evenodd" d="M548 246L545 243L543 245L553 253L552 256L553 255L555 259L557 259L557 257L559 259L558 261L557 260L555 262L558 269L559 268L567 272L570 269L570 265L575 266L574 263L572 263L572 261L569 260L569 256L566 249L562 247L559 244L559 242L553 248L552 245L550 247L548 246z" id="江苏省"/><path class="leaflet-interactive" stroke="#3388ff" stroke-opacity="0" stroke-width="3" stroke-linecap="round" stroke-linejoin="round" fill="#eee" fill-opacity="0.5" fill-rule="evenodd" d="M555 288L557 288L557 293L560 294L562 292L562 294L566 294L566 296L568 291L570 291L569 290L573 288L573 282L575 282L575 278L569 270L567 272L562 269L561 273L560 272L560 274L557 275L557 279L553 282L555 288zM576 277L577 276L575 276L576 277zM576 276L576 276zM576 279L576 279zM577 272L578 272zM576 275L576 275zM577 275L577 275zM575 282L575 282zM577 278L578 277L577 278zM577 274L577 274zM574 285L574 285zM577 278L577 278zM574 283L574 283zM571 292L571 292zM575 272L576 273L575 272zM574 287L574 287zM576 279L576 279zM578 277L578 277zM578 273L578 273zM574 287L574 287zM575 276L575 276zM577 277L577 277zM574 277L574 277zM570 293L570 293zM575 282L575 282zM575 279L575 279zM575 276L575 276zM575 275L575 275zM576 277L576 277zM577 279L576 279zM570 291L570 291zM579 276L579 276zM577 275L577 275zM577 278L577 278zM579 272L579 272zM570 290L570 290zM570 290L570 290zM578 277L578 277zM580 272L580 272zM576 277L576 277zM575 277L575 277zM570 290L570 290zM578 277L578 277zM576 277L576 277z" id="浙江省"/><path class="leaflet-interactive" stroke="#3388ff" stroke-opacity="0" stroke-width="3" stroke-linecap="round" stroke-linejoin="round" fill="#eee" fill-opacity="0.5" fill-rule="evenodd" d="M544 250L545 251L542 252L540 250L538 251L539 252L537 256L535 256L535 258L538 261L539 260L541 263L537 267L541 271L540 274L542 278L544 278L544 276L546 280L548 277L554 281L557 278L557 276L560 275L562 270L560 268L557 269L557 267L554 264L556 260L559 259L557 257L557 259L555 259L554 256L552 256L553 253L544 246L542 246L544 250zM557 267L557 267zM545 279L545 279zM538 261L538 261z" id="安徽省"/><path class="leaflet-interactive" stroke="#3388ff" stroke-opacity="0" stroke-width="3" stroke-linecap="round" stroke-linejoin="round" fill="#eee" fill-opacity="0.5" fill-rule="evenodd" d="M558 309L557 308L559 308L559 306L563 306L561 306L563 301L562 299L564 299L563 300L566 295L561 292L559 294L557 292L557 288L555 288L547 292L548 295L544 298L544 302L541 305L540 310L544 312L545 311L546 316L548 318L553 314L553 312L556 312L556 310L558 309zM555 312L554 313L555 312zM561 308L561 308zM561 305L561 305zM564 302L563 301zM554 313L554 313zM563 298L563 298zM553 312L553 312zM563 302L563 302zM562 302L561 302zM564 300L564 299zM562 305L562 305zM562 299L563 299zM564 299L564 299zM566 297L565 297zM565 298L565 298zM562 299L562 299z" id="福建省"/><path class="leaflet-interactive" stroke="#3388ff" stroke-opacity="0" stroke-width="3" stroke-linecap="round" stroke-linejoin="round" fill="#eee" fill-opacity="0.5" fill-rule="evenodd" d="M553 281L548 278L546 280L544 276L544 278L538 278L534 280L535 281L531 281L529 283L531 287L527 293L529 295L529 301L531 301L529 306L534 307L530 311L531 312L535 312L537 310L539 312L540 311L542 303L544 302L543 301L547 293L555 288L552 282L553 281z" id="江西省"/><path class="leaflet-interactive" stroke="#3388ff" stroke-opacity="0" stroke-width="3" stroke-linecap="round" stroke-linejoin="round" fill="#eee" fill-opacity="0.5" fill-rule="evenodd" d="M543 246L543 244L546 243L548 247L552 245L553 248L559 242L560 243L565 236L564 235L567 236L569 232L577 230L579 226L573 226L568 223L565 224L562 228L560 228L558 226L560 223L557 221L555 222L553 220L551 220L549 223L545 223L537 232L537 238L541 236L534 242L539 246L543 246zM568 222L568 223zM568 222L568 222zM569 233L569 233zM568 221L568 221zM569 219L569 219zM565 238L565 238zM567 222L567 222zM568 220L568 220zM572 225L572 225zM572 225L572 225zM572 225L572 225zM538 237L538 237z" id="山东省"/><path class="leaflet-interactive" stroke="#3388ff" stroke-opacity="0" stroke-width="3" stroke-linecap="round" stroke-linejoin="round" fill="#eee" fill-opacity="0.5" fill-rule="evenodd" d="M522 261L528 261L530 265L537 268L538 267L541 263L540 260L536 260L535 257L540 250L542 252L545 251L544 248L542 248L542 246L538 246L536 243L534 243L541 236L537 238L538 235L535 236L529 234L525 241L519 241L519 243L509 247L513 254L512 255L516 260L520 262L522 261zM528 262L528 262z" id="河南省"/><path class="leaflet-interactive" stroke="#3388ff" stroke-opacity="0" stroke-width="3" stroke-linecap="round" stroke-linejoin="round" fill="#eee" fill-opacity="0.5" fill-rule="evenodd" d="M513 256L504 255L506 257L505 258L508 259L504 261L504 265L508 269L508 271L506 271L503 274L500 273L498 275L498 279L499 278L501 280L500 281L502 281L502 283L504 279L510 279L511 276L520 280L524 278L523 279L525 281L527 278L528 283L531 281L535 281L534 280L538 278L542 278L540 274L541 271L538 268L530 265L528 261L518 261L513 256zM502 273L502 273zM513 256L513 256zM522 261L522 261zM523 278L523 278z" id="湖北省"/><path class="leaflet-interactive" stroke="#3388ff" stroke-opacity="0" stroke-width="3" stroke-linecap="round" stroke-linejoin="round" fill="#eee" fill-opacity="0.5" fill-rule="evenodd" d="M518 311L519 308L523 310L525 306L529 306L531 302L529 302L530 299L529 294L527 294L527 292L531 288L527 282L527 278L524 281L523 278L521 280L517 277L516 278L510 276L509 279L507 278L503 280L502 285L504 293L502 293L500 296L504 296L503 301L506 304L507 301L507 303L509 303L512 300L514 304L515 303L512 309L513 310L515 308L516 311L518 310zM504 298L504 298z" id="湖南省"/><path class="leaflet-interactive" stroke="#3388ff" stroke-opacity="0" stroke-width="3" stroke-linecap="round" stroke-linejoin="round" fill="#eee" fill-opacity="0.5" fill-rule="evenodd" d="M527 326L528 323L530 325L539 322L542 323L547 318L547 314L545 312L546 311L540 309L539 312L537 310L535 312L531 312L530 311L534 307L533 306L525 306L523 310L519 308L517 314L518 315L515 318L515 322L505 330L506 339L510 337L508 333L511 331L512 332L524 327L525 328L527 326zM547 319L547 319zM523 329L522 330L523 329zM521 330L522 329L521 330zM531 328L531 327zM509 333L510 332L509 333zM521 330L521 330zM510 333L508 334L510 333zM528 328L528 328zM528 328L528 328zM525 329L525 328zM529 325L528 325zM531 328L531 328zM530 328L530 328zM545 335L546 335zM524 329L524 328zM509 336L509 336zM510 334L510 334zM510 338L510 338zM541 333L541 333zM540 334L541 334zM540 323L540 323zM540 323L540 323z" id="广东省"/><path class="leaflet-interactive" stroke="#3388ff" stroke-opacity="0" stroke-width="3" stroke-linecap="round" stroke-linejoin="round" fill="#eee" fill-opacity="0.5" fill-rule="evenodd" d="M504 303L501 304L501 306L500 305L495 308L492 308L491 305L490 308L489 307L485 309L485 311L481 309L475 311L479 313L479 315L485 315L485 317L482 320L484 322L489 323L487 325L488 328L495 331L505 331L507 328L509 328L509 326L511 326L511 324L515 322L515 318L518 315L518 311L516 311L515 308L513 310L512 309L515 304L513 300L508 303L504 303zM479 309L479 310zM502 334L502 334z" id="广西壮族自治区"/><path class="leaflet-interactive" stroke="#3388ff" stroke-opacity="0" stroke-width="3" stroke-linecap="round" stroke-linejoin="round" fill="#eee" fill-opacity="0.5" fill-rule="evenodd" d="M507 340L503 340L499 344L499 348L501 350L504 351L510 348L510 345L513 342L511 339L508 339zM519 434L519 434zM525 410L526 409zM518 434L518 434zM515 357L515 357zM551 369L551 368zM520 434L520 433zM517 363L517 362zM516 362L516 362zM529 413L533 411L529 412zM529 405L530 406L529 405zM529 406L529 406zM518 362L518 362zM517 361L517 361zM519 405L519 405zM528 414L529 414zM531 406L531 406zM519 358L520 358zM533 397L534 397zM540 400L540 400zM533 399L533 399zM528 412L529 412zM504 414L505 413L504 414zM542 405L543 405zM521 364L522 363L521 364zM521 405L522 405zM532 394L533 394zM520 362L521 362zM544 397L544 396zM520 358L520 358zM515 361L516 361zM538 399L538 399zM533 409L534 409zM532 410L533 409zM536 408L537 409L536 408zM529 410L529 410zM538 402L538 402zM544 404L544 404zM527 405L528 405zM533 393L534 393zM533 391L533 390zM535 394L535 394zM516 361L516 361zM529 405L529 406zM506 411L507 411zM545 390L545 390zM516 360L517 360zM521 361L521 361zM517 363L517 363zM529 399L529 398zM534 409L534 410zM544 400L544 400zM537 398L537 398zM546 396L546 396zM534 363L534 363zM541 403L541 403zM528 403L528 403zM533 413L534 413zM532 395L533 394zM551 394L551 394zM531 397L531 397zM533 390L534 390zM545 396L545 396zM509 410L510 409L509 410zM515 407L515 407zM537 407L537 407zM525 410L525 410zM530 393L530 393zM548 397L548 397zM531 364L531 363zM510 410L510 410zM538 408L538 407zM516 413L516 413zM516 406L517 407L516 406zM509 411L510 411zM520 405L520 405zM544 400L544 400zM518 410L518 410zM532 366L532 366zM535 393L535 393zM530 364L530 364zM541 398L541 398zM548 395L548 395zM534 415L534 415zM523 405L523 405zM516 412L516 412zM519 406L520 405zM521 423L521 423zM533 405L533 405zM534 410L535 410zM524 408L524 408zM527 416L527 416zM545 362L545 362zM549 398L549 398zM524 343L524 343zM532 364L532 363zM529 345L528 345zM522 427L522 427zM516 411L516 411zM520 405L520 405zM523 411L523 411zM521 424L522 424zM521 424L521 424zM537 376L537 376zM527 397L527 397zM529 367L529 367zM523 428L523 427zM521 427L522 427zM520 424L520 424zM519 359L519 359zM519 366L519 365zM522 425L522 425zM521 423L521 423zM525 420L525 420zM542 401L542 401zM535 413L535 413zM516 411L516 411zM529 365L529 365zM535 364L535 364zM545 404L545 404zM522 361L522 361zM514 340L514 340zM540 396L540 396zM548 395L548 395zM522 362L522 362zM540 396L540 396zM521 401L521 401zM533 366L533 366zM548 393L548 393zM551 393L551 393zM530 402L531 402zM534 400L534 401zM521 422L521 422z" id="海南省"/><path class="leaflet-interactive" stroke="#3388ff" stroke-opacity="0" stroke-width="3" stroke-linecap="round" stroke-linejoin="round" fill="#eee" fill-opacity="0.5" fill-rule="evenodd" d="M486 287L488 285L488 287L491 284L492 285L493 282L495 284L496 283L498 285L497 286L499 286L499 288L500 287L500 289L502 289L503 284L502 281L500 281L501 280L499 278L498 279L498 275L500 273L503 274L506 271L507 272L508 269L498 262L496 270L494 272L493 271L493 273L489 277L484 274L482 276L483 277L480 280L484 284L486 284L486 286zM502 273L502 273zM482 276L482 276zM502 273L502 273zM490 277L490 277z" id="重庆市"/><path class="leaflet-interactive" stroke="#3388ff" stroke-opacity="0" stroke-width="3" stroke-linecap="round" stroke-linejoin="round" fill="#eee" fill-opacity="0.5" fill-rule="evenodd" d="M457 295L456 296L458 300L462 302L467 300L466 295L473 286L475 286L474 287L476 291L478 291L479 289L480 292L484 292L486 290L483 289L482 286L486 286L486 284L484 284L480 280L484 274L489 277L493 273L492 272L496 270L498 262L495 263L492 260L486 260L484 258L481 258L479 260L476 259L474 257L474 253L470 251L469 252L467 248L463 250L464 253L461 256L460 253L459 256L456 255L457 258L455 260L451 260L450 257L448 259L445 256L443 256L441 250L438 249L435 252L437 254L435 258L441 263L441 265L444 268L442 268L445 277L445 287L446 288L448 284L451 288L450 289L452 291L454 290L454 292L457 295zM486 276L486 276zM490 276L490 276zM482 276L482 276z" id="四川省"/><path class="leaflet-interactive" stroke="#3388ff" stroke-opacity="0" stroke-width="3" stroke-linecap="round" stroke-linejoin="round" fill="#eee" fill-opacity="0.5" fill-rule="evenodd" d="M503 287L501 289L497 285L497 283L494 284L494 282L492 282L491 285L490 284L487 287L487 285L487 287L484 285L482 287L486 290L484 292L481 291L480 294L472 294L470 296L471 299L476 300L474 305L477 308L476 311L480 309L485 311L485 309L489 307L490 308L491 305L492 308L496 308L496 306L499 307L499 305L502 306L501 305L503 305L504 296L500 296L504 292L503 287zM504 297L504 297zM504 298L504 298z" id="贵州省"/><path class="leaflet-interactive" stroke="#3388ff" stroke-opacity="0" stroke-width="3" stroke-linecap="round" stroke-linejoin="round" fill="#eee" fill-opacity="0.5" fill-rule="evenodd" d="M480 292L479 289L477 291L475 290L475 286L471 287L472 288L470 288L470 291L466 295L467 300L461 302L458 299L455 292L452 291L448 285L446 287L447 288L445 288L445 282L444 285L442 285L443 288L442 289L440 287L439 290L440 293L441 292L443 294L443 304L441 304L437 309L436 315L444 315L442 315L442 317L444 321L445 320L444 321L447 322L445 326L450 327L452 331L456 329L456 331L460 333L460 325L464 323L467 325L469 323L477 323L478 320L482 320L485 317L485 315L479 315L480 314L475 311L477 309L475 305L477 300L475 298L471 298L473 294L480 294L480 292z" id="云南省"/><path class="leaflet-interactive" stroke="#3388ff" stroke-opacity="0" stroke-width="3" stroke-linecap="round" stroke-linejoin="round" fill="#eee" fill-opacity="0.5" fill-rule="evenodd" d="M391 236L389 234L379 233L371 235L370 238L364 238L359 241L355 241L352 238L350 238L346 242L342 240L338 241L334 247L330 247L331 248L328 250L332 258L331 261L329 261L329 259L327 261L327 263L330 266L330 270L336 271L336 273L343 277L344 274L346 274L356 282L359 281L361 285L366 286L365 287L371 291L371 289L373 291L373 289L377 291L387 290L386 293L388 295L389 291L392 288L402 291L402 293L404 293L406 297L413 297L425 288L429 288L433 292L436 287L440 289L440 287L442 289L442 285L444 285L445 282L445 277L440 261L436 260L434 262L435 263L431 265L432 266L428 264L429 266L426 266L424 262L423 263L423 261L419 259L415 261L394 254L392 252L393 251L391 251L391 236z" id="西藏自治区"/><path class="leaflet-interactive" stroke="#3388ff" stroke-opacity="0" stroke-width="3" stroke-linecap="round" stroke-linejoin="round" fill="#eee" fill-opacity="0.5" fill-rule="evenodd" d="M509 246L509 230L511 226L510 221L514 213L513 210L510 213L508 211L508 213L505 214L505 216L501 219L500 224L497 225L493 223L491 225L491 229L499 233L499 241L494 241L493 244L488 243L486 247L488 247L486 251L487 252L483 254L483 258L481 257L482 259L490 259L495 263L498 262L503 266L505 264L504 261L508 259L505 258L506 257L504 255L511 256L513 254L510 251L511 250L509 246zM513 254L513 254zM484 259L484 259z" id="陕西省"/><path class="leaflet-interactive" stroke="#3388ff" stroke-opacity="0" stroke-width="3" stroke-linecap="round" stroke-linejoin="round" fill="#eee" fill-opacity="0.5" fill-rule="evenodd" d="M487 238L486 241L483 240L483 238L480 237L480 230L477 227L476 228L476 226L469 223L469 219L474 215L472 211L467 214L460 214L461 217L455 215L455 213L452 210L447 208L451 205L451 201L448 200L443 203L440 203L440 200L436 197L438 195L434 186L429 187L427 189L428 191L426 194L422 194L414 202L410 203L406 213L410 213L416 217L417 216L419 219L425 219L428 221L431 220L431 218L433 218L432 215L434 213L439 216L443 214L448 219L450 220L450 218L457 223L462 224L461 225L464 228L467 237L465 237L466 240L465 239L461 245L463 248L462 249L458 249L455 247L454 248L458 253L459 252L459 254L461 254L461 256L464 253L462 250L466 248L468 252L469 251L474 253L474 257L476 259L481 259L481 257L482 258L484 256L482 254L487 253L487 243L494 244L495 241L499 241L499 233L488 228L486 232L489 235L489 237L487 238zM484 240L484 240zM466 234L466 234zM484 240L484 240zM487 238L487 238z" id="甘肃省"/><path class="leaflet-interactive" stroke="#3388ff" stroke-opacity="0" stroke-width="3" stroke-linecap="round" stroke-linejoin="round" fill="#eee" fill-opacity="0.5" fill-rule="evenodd" d="M466 234L464 229L465 228L461 224L456 223L454 220L450 218L451 220L449 219L444 214L441 214L439 216L433 213L433 217L429 221L426 219L420 219L418 216L416 217L411 215L411 213L394 218L394 220L396 220L396 224L400 228L397 231L399 233L398 236L393 234L393 236L390 237L392 237L390 241L390 244L392 244L391 251L393 251L392 252L397 256L401 256L415 261L419 259L423 261L422 262L424 262L426 266L428 266L428 264L432 266L431 265L435 263L434 262L436 260L435 257L437 255L435 251L438 249L442 252L443 256L445 256L448 259L450 257L451 260L455 260L457 258L456 255L458 256L460 255L460 253L459 254L459 252L458 253L454 249L463 248L461 244L463 240L466 239L466 234z" id="青海省"/><path class="leaflet-interactive" stroke="#3388ff" stroke-opacity="0" stroke-width="3" stroke-linecap="round" stroke-linejoin="round" fill="#eee" fill-opacity="0.5" fill-rule="evenodd" d="M491 228L493 222L487 220L490 215L489 212L487 212L484 215L482 224L474 226L476 226L476 228L477 227L480 230L480 236L486 242L486 238L489 237L489 235L486 232L488 230L487 229L491 228zM484 240L484 240zM484 240L484 240z" id="宁夏回族自治区"/><path class="leaflet-interactive" stroke="#3388ff" stroke-opacity="0" stroke-width="3" stroke-linecap="round" stroke-linejoin="round" fill="#eee" fill-opacity="0.5" fill-rule="evenodd" d="M429 187L423 174L422 175L410 168L400 168L397 165L399 160L399 154L394 146L388 144L382 139L382 137L380 137L381 134L375 134L375 138L373 140L369 140L368 142L368 152L359 153L354 150L349 162L351 166L345 166L336 169L338 171L338 175L341 182L338 185L340 185L337 187L338 190L334 194L333 193L323 200L320 199L316 203L316 205L312 205L311 203L307 204L304 207L303 206L299 213L302 218L305 217L307 219L306 220L308 226L305 227L305 229L309 229L313 232L314 237L321 240L325 240L326 245L331 248L330 247L334 247L339 240L345 242L351 238L353 240L360 241L364 238L370 238L371 235L379 233L398 236L399 233L397 231L400 228L396 224L396 220L394 220L394 218L406 215L410 203L415 201L421 194L423 194L423 196L428 192L428 187z" id="新疆维吾尔自治区"/><path class="leaflet-interactive" stroke="#3388ff" stroke-opacity="0" stroke-width="3" stroke-linecap="round" stroke-linejoin="round" fill="#eee" fill-opacity="0.5" fill-rule="evenodd" d="M566 325L567 328L569 328L569 324L572 321L575 309L573 307L567 312L564 317L565 324zM590 303L590 303zM583 304L583 304zM562 318L561 318zM585 303L585 303zM561 318L561 318zM561 319L561 319zM561 317L561 317zM575 305L576 305zM572 323L572 323zM572 327L573 327zM576 306L576 306zM560 320L561 320zM566 326L566 325z" id="台湾省"/><path class="leaflet-interactive" stroke="#3388ff" stroke-opacity="0" stroke-width="3" stroke-linecap="round" stroke-linejoin="round" fill="#eee" fill-opacity="0.5" fill-rule="evenodd" d="M530 325L529 326L532 325L530 325zM530 326L530 326zM531 325L531 325zM531 325L531 325zM531 325L531 325zM531 326L531 326zM531 325L531 325zM532 326L532 326zM531 326L531 326z" id="香港特别行政区"/><path class="leaflet-interactive" stroke="#3388ff" stroke-opacity="0" stroke-width="3" stroke-linecap="round" stroke-linejoin="round" fill="#eee" fill-opacity="0.5" fill-rule="evenodd" d="M527 327L527 327zM527 326L527 326z" id="澳门特别行政区"/><path class="leaflet-interactive" stroke="#3388ff" stroke-opacity="0" stroke-width="3" stroke-linecap="round" stroke-linejoin="round" fill="#eee" fill-opacity="0.5" fill-rule="evenodd" d="M578 319L580 312L578 319zM570 335L575 330L574 329L570 335zM561 352L564 346L561 352zM558 369L558 364L558 369zM556 392L555 394L558 387L557 389zM538 415L542 410L538 415zM520 436L517 437L523 435L521 436zM497 421L497 416L497 421zM508 391L507 392L509 386L508 390zM506 368L503 363L505 367z" id="100000_JD"/></g></svg>